<svg width="18" height="29" viewBox="0 0 18 29" fill="none" xmlns="http://www.w3.org/2000/svg">
<g clip-path="url(#clip0_120_40)">
<path d="M17.4713 8.47122C18.1744 7.7681 18.1744 6.62622 17.4713 5.9231C16.7681 5.21997 15.6263 5.21997 14.9231 5.9231L9.00001 11.8518L3.07126 5.92872C2.36813 5.2256 1.22626 5.2256 0.523132 5.92872C-0.179993 6.63185 -0.179993 7.77372 0.523132 8.47685L6.45188 14.4L0.528757 20.3287C-0.174368 21.0318 -0.174368 22.1737 0.528757 22.8768C1.23188 23.58 2.37376 23.58 3.07688 22.8768L9.00001 16.9481L14.9288 22.8712C15.6319 23.5743 16.7738 23.5743 17.4769 22.8712C18.18 22.1681 18.18 21.0262 17.4769 20.3231L11.5481 14.4L17.4713 8.47122Z" fill="#0E2D22"/>
</g>
<defs>
<clipPath id="clip0_120_40">
<rect width="18" height="28.8" fill="white"/>
</clipPath>
</defs>
</svg>
