<svg width="18" height="19" viewBox="0 0 18 19" fill="none" xmlns="http://www.w3.org/2000/svg">
<path d="M12.9807 0.582111L11.0067 2.55969L15.4439 6.99685L17.4179 5.02281C18.194 4.24666 18.194 2.99207 17.4179 2.21592L15.7876 0.582111C15.0115 -0.194037 13.7569 -0.194037 12.9807 0.582111ZM10.1313 3.28622L9.80526 3.38546L4.69828 4.91649C3.99302 5.12913 3.43306 5.66783 3.19915 6.36955L0.0591199 15.7329C-0.0755541 16.1334 0.0236794 16.58 0.317836 16.8812L5.7615 11.4411C5.65518 11.2178 5.59493 10.9697 5.59493 10.7075C5.59493 9.76829 6.3569 9.00632 7.29607 9.00632C8.23525 9.00632 8.99722 9.76829 8.99722 10.7075C8.99722 11.6466 8.23525 12.4086 7.29607 12.4086C7.03382 12.4086 6.78573 12.3484 6.56246 12.242L1.11879 17.6857C1.42358 17.9799 1.86659 18.0826 2.26706 17.9444L11.634 14.8044C12.3322 14.5705 12.8744 14.0105 13.0871 13.3053L14.6181 8.19828L14.7173 7.87223L10.1313 3.28622Z" fill="#0E2D22"/>
</svg>
