<svg width="18" height="18" viewBox="0 0 18 18" fill="none" xmlns="http://www.w3.org/2000/svg">
<path d="M2.57143 0C1.15313 0 0 1.15313 0 2.57143V15.4286C0 16.8469 1.15313 18 2.57143 18H15.4286C16.8469 18 18 16.8469 18 15.4286V5.67723C18 4.9942 17.7308 4.33929 17.2487 3.85714L14.1429 0.751339C13.6607 0.269196 13.0058 0 12.3228 0H2.57143ZM2.57143 3.85714C2.57143 3.14598 3.14598 2.57143 3.85714 2.57143H11.5714C12.2826 2.57143 12.8571 3.14598 12.8571 3.85714V6.42857C12.8571 7.13973 12.2826 7.71429 11.5714 7.71429H3.85714C3.14598 7.71429 2.57143 7.13973 2.57143 6.42857V3.85714ZM9 10.2857C9.68199 10.2857 10.336 10.5566 10.8183 11.0389C11.3005 11.5211 11.5714 12.1752 11.5714 12.8571C11.5714 13.5391 11.3005 14.1932 10.8183 14.6754C10.336 15.1577 9.68199 15.4286 9 15.4286C8.31801 15.4286 7.66396 15.1577 7.18173 14.6754C6.69949 14.1932 6.42857 13.5391 6.42857 12.8571C6.42857 12.1752 6.69949 11.5211 7.18173 11.0389C7.66396 10.5566 8.31801 10.2857 9 10.2857Z" fill="#0E2D22"/>
</svg>
